<svg xmlns="http://www.w3.org/2000/svg" height="24" viewBox="0 96 960 960" width="24"><path d="M240 856v40q0 17-11.5 28.5T200 936h-40q-17 0-28.5-11.5T120 896V576l84-240q6-18 21.5-29t34.5-11h440q19 0 34.5 11t21.5 29l84 240v320q0 17-11.5 28.5T800 936h-40q-17 0-28.5-11.5T720 896v-40H240Zm-8-360h496l-42-120H274l-42 120Zm-32 80v200-200Zm100 160q25 0 42.5-17.5T360 676q0-25-17.5-42.5T300 616q-25 0-42.5 17.5T240 676q0 25 17.5 42.5T300 736Zm360 0q25 0 42.5-17.5T720 676q0-25-17.5-42.5T660 616q-25 0-42.5 17.5T600 676q0 25 17.5 42.5T660 736Zm-460 40h560V576H200v200Z"/></svg>