<svg xmlns="http://www.w3.org/2000/svg" height="24" viewBox="0 96 960 960" width="24"><path d="M182 856q-51 0-79-35.5T82 734l42-300q9-60 53.5-99T282 296h396q60 0 104.5 39t53.5 99l42 300q7 51-21 86.5T778 856q-21 0-39-7.5T706 826l-90-90H344l-90 90q-15 15-33 22.5t-39 7.5Zm16-86 114-114h336l114 114q2 2 16 6 11 0 17.5-6.5T800 752l-44-308q-4-29-26-48.5T678 376H282q-30 0-52 19.5T204 444l-44 308q-2 11 4.5 17.5T182 776q2 0 16-6Zm482-154q17 0 28.5-11.5T720 576q0-17-11.5-28.5T680 536q-17 0-28.5 11.5T640 576q0 17 11.5 28.5T680 616Zm-80-120q17 0 28.5-11.5T640 456q0-17-11.5-28.5T600 416q-17 0-28.5 11.5T560 456q0 17 11.5 28.5T600 496ZM310 616h60v-70h70v-60h-70v-70h-60v70h-70v60h70v70Zm170-40Z"/></svg>